<svg width="20" height="20" viewBox="0 0 20 20" fill="none" xmlns="http://www.w3.org/2000/svg">
<path d="M12.735 6.74351L10.4158 1.76358C10.2522 1.41214 9.74785 1.41214 9.58418 1.76358L7.26501 6.74351C7.1983 6.88675 7.06125 6.98537 6.9031 7.00394L1.40457 7.64965C1.01652 7.69522 0.860683 8.17026 1.14757 8.43304L5.21278 12.1565C5.3297 12.2636 5.38205 12.4232 5.35102 12.5779L4.27191 17.9569C4.19575 18.3365 4.60375 18.6301 4.94472 18.4411L9.77633 15.7624C9.9153 15.6853 10.0847 15.6853 10.2237 15.7624L15.0553 18.4411C15.3963 18.6301 15.8042 18.3365 15.7281 17.9569L14.649 12.5779C14.6179 12.4232 14.6703 12.2636 14.7872 12.1565L18.8524 8.43304C19.1393 8.17026 18.9835 7.69522 18.5954 7.64965L13.0969 7.00394C12.9388 6.98537 12.8017 6.88674 12.735 6.74351Z" stroke="#3C727B" stroke-width="1.5" stroke-linecap="round" stroke-linejoin="round"/>
</svg>
